<svg xmlns="http://www.w3.org/2000/svg" id="_&#xB808;&#xC774;&#xC5B4;_1" viewBox="0 0 322.187894 49.3555431"><g><path d="M7.9168979,1.7998047c.8496094,0,1.6289062.1416016,2.3369141.4248047.7080078.2836914,1.3212891.7089844,1.8378906,1.2753906s.9208984,1.2666016,1.2119141,2.0996094c.2919922.8339844.4375,1.800293.4375,2.9003906v2.5996094c0,1.1000977-.1455078,2.0668945-.4375,2.9003906-.2910156.8334961-.6953125,1.5292969-1.2119141,2.0874023-.5166016.5585938-1.1298828.9790039-1.8378906,1.262207-.7080078.2836914-1.4873047.425293-2.3369141.425293-.8505859,0-1.6298828-.1416016-2.3378906-.425293-.7089844-.2832031-1.3212891-.7036133-1.8378906-1.262207-.5166016-.5581055-.9208984-1.2539062-1.2119141-2.0874023-.2919922-.8334961-.4375-1.800293-.4375-2.9003906v-2.5996094c0-1.1000977.1455078-2.0708008.4375-2.9125977.2910156-.8413086.6953125-1.5415039,1.2119141-2.1000977.5166016-.5581055,1.1289062-.9790039,1.8378906-1.2626953.7080078-.2832031,1.4873047-.4248047,2.3378906-.4248047ZM7.9168979,15.5498047c.4492188,0,.8828125-.0830078,1.2998047-.25.4160156-.1665039.7832031-.4414062,1.0996094-.8251953.3164062-.3828125.5712891-.8789062.7626953-1.4873047s.2871094-1.3540039.2871094-2.2373047v-1.9003906c0-.8828125-.0957031-1.6289062-.2871094-2.2373047s-.4501953-1.1040039-.7753906-1.4873047c-.3242188-.3833008-.6914062-.6582031-1.0996094-.8251953-.4082031-.1665039-.8378906-.25-1.2871094-.25-.4501953,0-.8837891.0834961-1.3007812.25-.4160156.1669922-.7832031.4418945-1.0996094.8251953s-.5712891.8789062-.7626953,1.4873047-.2871094,1.3544922-.2871094,2.2373047v1.9003906c0,.8833008.0957031,1.6289062.2871094,2.2373047s.4462891,1.1044922.7626953,1.4873047c.3164062.3837891.6835938.6586914,1.0996094.8251953.4169922.1669922.8505859.25,1.3007812.25ZM17.566312,23.2998047V.25h2.4755859v23.0498047h-2.4755859Z"></path><path d="M48.3417026,14v2.0498047h-21.1503906v-2.0498047h9.3251953v-1.425293c-1.75-.1162109-3.1416016-.4663086-4.1748047-1.0498047-1.0341797-.5834961-1.5498047-1.3666992-1.5498047-2.3500977v-.7001953c0-.5498047.1660156-1.0371094.5-1.4624023.3330078-.4248047.8037109-.7832031,1.4121094-1.074707s1.3417969-.5126953,2.2001953-.6625977,1.8125-.2250977,2.8623047-.2250977,2.0039062.0751953,2.8623047.2250977,1.5917969.3710938,2.2001953.6625977,1.0791016.6499023,1.4121094,1.074707c.3339844.425293.5.9125977.5,1.4624023v.7001953c0,.5-.1328125.9462891-.3994141,1.3374023-.2666016.3920898-.6503906.7338867-1.1503906,1.0249023-.5.2919922-1.1044922.5253906-1.8125.7001953s-1.4960938.2875977-2.3623047.3374023v1.425293h9.3251953ZM29.3661167,2.1748047h7.1503906V0h2.4746094v2.1748047h7.1757812v2.0498047h-16.8007812v-2.0498047ZM32.7167026,20.949707h13.0244141v2.1499023h-15.5v-5.824707h2.4755859v3.6748047ZM37.7665073,7.0249023c-1.4667969,0-2.5878906.1542969-3.3623047.4624023-.7753906.3085938-1.1630859.7124023-1.1630859,1.2124023v.25c0,.5.3876953.9042969,1.1630859,1.2124023.7744141.3085938,1.8955078.4628906,3.3623047.4628906s2.5878906-.1542969,3.3623047-.4628906c.7753906-.3081055,1.1630859-.7124023,1.1630859-1.2124023v-.25c0-.5-.3876953-.9038086-1.1630859-1.2124023-.7744141-.3081055-1.8955078-.4624023-3.3623047-.4624023Z"></path><path d="M60.8651401,9.324707c-.0830078.2167969-.2871094.5087891-.6123047.875-.3251953.3666992-.6787109.7250977-1.0625,1.0751953-.5332031.4833984-1.1289062.9790039-1.7871094,1.4873047-.6591797.5087891-1.3378906,1.0043945-2.0380859,1.487793l-1.4492188-1.7753906c.7998047-.5664062,1.5576172-1.125,2.2744141-1.6748047s1.2919922-1.0332031,1.7255859-1.4501953c.2998047-.2832031.5537109-.5664062.7617188-.8496094.2089844-.2832031.375-.5791016.5-.8876953.125-.3081055.2167969-.6455078.2753906-1.0126953.0585938-.3662109.0878906-.7749023.0878906-1.2246094v-1.5253906h-4.8505859V1.7246094h11.9003906v2.125h-4.5498047v1.425293c0,.7998047.0830078,1.4624023.25,1.9873047.1660156.5249023.515625,1.0209961,1.0498047,1.487793.5996094.5332031,1.2246094,1.0415039,1.875,1.5249023.6494141.4833984,1.3408203.9667969,2.0751953,1.449707l-1.4003906,1.800293c-.6503906-.4501953-1.2587891-.8916016-1.8251953-1.3251953-.5664062-.4331055-1.1494141-.8999023-1.75-1.3999023-.3837891-.3164062-.6962891-.5957031-.9375-.8374023s-.4042969-.4541016-.4873047-.6376953h-.0253906ZM60.7655307,20.8999023h12.4003906v2.1499023h-14.875v-7.7001953h2.4746094v5.550293ZM70.2401401,16.6748047v-8.4248047h-4.25v-2.125h4.25V.25h2.4501953v16.4248047h-2.4501953Z"></path><path d="M89.3153354,18.324707v-4.449707h-9.625v-2.1000977h21.1503906v2.1000977h-9.0253906v4.449707h-2.5ZM85.215726,20.8999023h13.0244141v2.1499023h-15.5v-6.7998047h2.4755859v4.6499023ZM97.7655307,9.5996094h-15V1.1499023h15v8.449707ZM95.3153354,3.2246094h-10.0996094v4.300293h10.0996094V3.2246094Z"></path><path d="M107.3153354,13.0249023V1.324707h2.4248047v4.0751953h5.9257812V1.324707h2.4248047v11.7001953h-10.7753906ZM109.7401401,10.9248047h5.9257812v-3.4501953h-5.9257812v3.4501953ZM113.2655307,20.8999023h12.4003906v2.1499023h-14.875v-7.4750977h2.4746094v5.3251953ZM122.7655307,16.699707v-5.699707h-3.5996094v-2.125h3.5996094v-2.8251953h-3.5996094v-2.125h3.5996094V.25h2.4248047v16.449707h-2.4248047Z"></path><path d="M153.340726,18.125v2.0996094h-21.1503906v-2.0996094h9.3251953v-2.7753906c-.9003906-.0664062-1.7089844-.2207031-2.4248047-.4624023-.7167969-.2412109-1.3212891-.5454102-1.8125-.9125977-.4921875-.3662109-.8710938-.7871094-1.1376953-1.262207s-.4003906-.987793-.4003906-1.5375977v-.7998047c0-.6166992.1630859-1.1835938.4882812-1.7001953.3242188-.5166016.7910156-.9624023,1.3994141-1.3374023s1.3457031-.6665039,2.2128906-.875c.8662109-.2084961,1.8408203-.3125,2.9248047-.3125,1.0830078,0,2.0585938.1040039,2.9248047.3125s1.6044922.5,2.2128906.875,1.0751953.8208008,1.3994141,1.3374023c.3251953.5166016.4882812,1.0834961.4882812,1.7001953v.7998047c0,.5498047-.1337891,1.0625-.4003906,1.5375977s-.6503906.8959961-1.1503906,1.262207c-.5.3671875-1.1035156.6713867-1.8125.9125977-.7080078.2416992-1.5117188.3959961-2.4121094.4624023v2.7753906h9.3251953ZM144.0409214,2.8999023h7.3242188v2.074707h-17.1992188v-2.074707h7.3242188V.0249023h2.5507812v2.875ZM138.1659214,11.0498047c0,.2836914.0908203.5625.2744141.8374023s.4628906.5249023.8378906.75.8535156.4086914,1.4375.550293c.5830078.1416016,1.2666016.2124023,2.0498047.2124023s1.4667969-.0708008,2.0498047-.2124023,1.0625-.3251953,1.4375-.550293.6542969-.4750977.8378906-.75c.1826172-.2749023.2744141-.5537109.2744141-.8374023v-.5498047c0-.2666016-.0917969-.5415039-.2744141-.8251953-.1835938-.2832031-.4628906-.5375977-.8378906-.7626953-.375-.2246094-.8544922-.4082031-1.4375-.5498047s-1.2666016-.2124023-2.0498047-.2124023-1.4667969.0708008-2.0498047.2124023c-.5839844.1416016-1.0625.3251953-1.4375.5498047-.375.2250977-.6542969.4794922-.8378906.7626953-.1835938.2836914-.2744141.5585938-.2744141.8251953v.5498047Z"></path><path d="M165.2645542,11.7246094c-.1171875.2836914-.2871094.5668945-.5126953.8500977-.2246094.2836914-.5371094.6420898-.9375,1.0751953-.5166016.5668945-1.1083984,1.1791992-1.7744141,1.8374023-.6669922.6586914-1.4257812,1.3793945-2.2753906,2.1625977l-1.625-1.675293c1.5166016-1.3496094,2.8330078-2.6411133,3.9501953-3.875.3828125-.4331055.7001953-.8330078.9501953-1.199707s.4453125-.7290039.5869141-1.0874023.2412109-.7250977.2998047-1.1000977.0878906-.7875977.0878906-1.237793V1.9248047h2.5v5.5498047c0,.5.0332031.9462891.0996094,1.3378906s.1757812.7666016.3251953,1.125c.1503906.3583984.3544922.7167969.6123047,1.074707.2587891.3588867.5791016.7460938.9628906,1.1625977.5332031.5834961,1.0917969,1.1542969,1.6748047,1.7124023.5830078.5585938,1.25,1.1713867,2,1.8374023l-1.5996094,1.7001953c-.8671875-.7998047-1.5966797-1.4956055-2.1875-2.0874023-.5917969-.5913086-1.1298828-1.1459961-1.6123047-1.6625977-.3505859-.3833008-.6630859-.7412109-.9375-1.0751953-.2753906-.3330078-.4628906-.625-.5625-.875h-.0253906ZM180.0150424,10.7246094h-3.5498047v12.5751953h-2.4755859V.25h2.4755859v8.324707h3.5498047v2.1499023Z"></path></g><g><path d="M73.5624057,44.5791016c-.4814453-.2167969-.859375-.5166016-1.1328125-.9013672-.2734375-.3837891-.4150391-.8271484-.4238281-1.3310547h1.2851562c.0439453.4326172.2226562.796875.5361328,1.0927734s.7705078.4443359,1.3710938.4443359c.5742188,0,1.0273438-.1435547,1.3583984-.4306641s.4960938-.65625.4960938-1.1064453c0-.3525391-.0966797-.6396484-.2910156-.8613281-.1943359-.2197266-.4375-.3876953-.7285156-.5029297-.2910156-.1142578-.6845703-.2382812-1.1787109-.3710938-.609375-.1591797-1.0976562-.3173828-1.4638672-.4765625-.3671875-.1591797-.6806641-.4082031-.9404297-.7490234-.2607422-.3398438-.3916016-.796875-.3916016-1.3710938,0-.5029297.1279297-.9492188.3847656-1.3378906.2558594-.3876953.6162109-.6884766,1.0791016-.9003906.4638672-.2119141.9960938-.3183594,1.5966797-.3183594.8652344,0,1.5742188.2167969,2.1259766.6494141s.8632812,1.0068359.9335938,1.7226562h-1.3242188c-.0439453-.3535156-.2294922-.6650391-.5566406-.9345703-.3261719-.2695312-.7597656-.4042969-1.2978516-.4042969-.5039062,0-.9140625.1308594-1.2324219.3916016-.3173828.2597656-.4765625.625-.4765625,1.0927734,0,.3359375.0947266.609375.2851562.8212891.1894531.2119141.4238281.3730469.7021484.4833984.2773438.1103516.6689453.2363281,1.171875.3769531.609375.1679688,1.0996094.3339844,1.4707031.4970703.3710938.1640625.6884766.4150391.953125.7548828.265625.3408203.3974609.8017578.3974609,1.3847656,0,.4501953-.1191406.8740234-.3574219,1.2714844s-.5917969.7197266-1.0595703.9667969c-.4677734.2480469-1.0205078.3710938-1.65625.3710938-.609375,0-1.1542969-.1074219-1.6357422-.3242188Z"></path><path d="M87.160062,35.5771484v9.2333984h-1.2060547v-4.1855469h-4.7021484v4.1855469h-1.2060547v-9.2333984h1.2060547v4.0537109h4.7021484v-4.0537109h1.2060547Z"></path><path d="M90.418851,35.5771484v9.2333984h-1.2060547v-9.2333984h1.2060547Z"></path><path d="M99.731351,44.8105469h-1.2050781l-4.8486328-7.3515625v7.3515625h-1.2060547v-9.2460938h1.2060547l4.8486328,7.3388672v-7.3388672h1.2050781v9.2460938Z"></path><path d="M103.0760776,44.5791016c-.4814453-.2167969-.859375-.5166016-1.1328125-.9013672-.2734375-.3837891-.4150391-.8271484-.4238281-1.3310547h1.2851562c.0439453.4326172.2226562.796875.5361328,1.0927734s.7705078.4443359,1.3710938.4443359c.5742188,0,1.0273438-.1435547,1.3583984-.4306641s.4960938-.65625.4960938-1.1064453c0-.3525391-.0966797-.6396484-.2910156-.8613281-.1943359-.2197266-.4375-.3876953-.7285156-.5029297-.2910156-.1142578-.6845703-.2382812-1.1787109-.3710938-.609375-.1591797-1.0976562-.3173828-1.4638672-.4765625-.3671875-.1591797-.6806641-.4082031-.9404297-.7490234-.2607422-.3398438-.3916016-.796875-.3916016-1.3710938,0-.5029297.1279297-.9492188.3847656-1.3378906.2558594-.3876953.6162109-.6884766,1.0791016-.9003906.4638672-.2119141.9960938-.3183594,1.5966797-.3183594.8652344,0,1.5742188.2167969,2.1259766.6494141s.8632812,1.0068359.9335938,1.7226562h-1.3242188c-.0439453-.3535156-.2294922-.6650391-.5566406-.9345703-.3261719-.2695312-.7597656-.4042969-1.2978516-.4042969-.5039062,0-.9140625.1308594-1.2324219.3916016-.3173828.2597656-.4765625.625-.4765625,1.0927734,0,.3359375.0947266.609375.2851562.8212891.1894531.2119141.4238281.3730469.7021484.4833984.2773438.1103516.6689453.2363281,1.171875.3769531.609375.1679688,1.0996094.3339844,1.4707031.4970703.3710938.1640625.6884766.4150391.953125.7548828.265625.3408203.3974609.8017578.3974609,1.3847656,0,.4501953-.1191406.8740234-.3574219,1.2714844s-.5917969.7197266-1.0595703.9667969c-.4677734.2480469-1.0205078.3710938-1.65625.3710938-.609375,0-1.1542969-.1074219-1.6357422-.3242188Z"></path><path d="M110.7655307,36.5576172v3.0869141h3.3642578v.9931641h-3.3642578v3.1796875h3.7617188v.9931641h-4.9677734v-9.2460938h4.9677734v.9931641h-3.7617188Z"></path><path d="M123.3504917,38.2539062c-.2568359-.5390625-.6269531-.9560547-1.1132812-1.2519531-.4853516-.2958984-1.0507812-.4443359-1.6953125-.4443359s-1.2255859.1484375-1.7421875.4443359-.9228516.7197266-1.21875,1.2714844-.4433594,1.1904297-.4433594,1.9140625c0,.7246094.1474609,1.3603516.4433594,1.9072266.2958984.5478516.7021484.9697266,1.21875,1.265625s1.0976562.4433594,1.7421875.4433594c.9003906,0,1.6425781-.2685547,2.2255859-.8076172s.9228516-1.2675781,1.0195312-2.1855469h-3.6826172v-.9804688h4.9677734v.9267578c-.0703125.7597656-.3085938,1.4550781-.7148438,2.0869141s-.9404297,1.1308594-1.6035156,1.4970703c-.6621094.3662109-1.3994141.5498047-2.2119141.5498047-.8564453,0-1.6386719-.2011719-2.3447266-.6035156-.7070312-.4013672-1.2646484-.9599609-1.6757812-1.6757812-.4101562-.7148438-.6162109-1.5224609-.6162109-2.4238281,0-.9003906.2060547-1.7109375.6162109-2.4306641.4111328-.7197266.96875-1.2802734,1.6757812-1.6826172.7060547-.4013672,1.4882812-.6025391,2.3447266-.6025391.9804688,0,1.8476562.2431641,2.6035156.7285156.7548828.4853516,1.3046875,1.1699219,1.6484375,2.0537109h-1.4433594Z"></path><path d="M132.1200229,42.7578125h-4.0263672l-.7421875,2.0527344h-1.2714844l3.3378906-9.1796875h1.390625l3.3251953,9.1796875h-1.2714844l-.7421875-2.0527344ZM131.7762729,41.7773438l-1.6699219-4.6630859-1.6689453,4.6630859h3.3388672Z"></path><path d="M136.7958042,36.5576172v3.0869141h3.3642578v.9931641h-3.3642578v3.1796875h3.7617188v.9931641h-4.9677734v-9.2460938h4.9677734v.9931641h-3.7617188Z"></path><path d="M143.5917026,43.8300781h3.2324219v.9804688h-4.4384766v-9.2333984h1.2060547v8.2529297Z"></path><path d="M153.566312,42.7578125h-4.0263672l-.7421875,2.0527344h-1.2714844l3.3378906-9.1796875h1.390625l3.3251953,9.1796875h-1.2714844l-.7421875-2.0527344ZM153.222562,41.7773438l-1.6699219-4.6630859-1.6689453,4.6630859h3.3388672Z"></path><path d="M168.6405307,35.5771484l-2.6757812,9.2333984h-1.3505859l-2.1464844-7.4316406-2.2255859,7.4316406-1.3378906.0136719-2.5830078-9.2470703h1.2851562l2.0136719,7.8291016,2.2255859-7.8291016h1.3505859l2.1201172,7.8027344,2.0263672-7.8027344h1.2978516Z"></path></g><g><polygon points="13.2078857 41.4883003 16.1082764 41.4883003 14.6580811 37.4375191 13.2078857 41.4883003"></polygon><path d="M44.5018311,38.4619331c0-.4755859-.140625-.8447266-.4208984-1.1054688s-.7070312-.390625-1.2832031-.390625h-1.5419922v3.0380859h1.5419922c.5683594,0,.9941406-.1396484,1.2783203-.4199219.2832031-.2802734.4257812-.6542969.4257812-1.1220703Z"></path><path d="M0,31.3059883v18.0495605h181v-18.0495605H0ZM10.3192139,44.1240425h-3.8554688v-8.0214844h1.046875v7.1699219h2.8085938v.8515625ZM17.0516357,44.1240425l-.6445312-1.7841797h-3.4990234l-.6445312,1.7841797h-1.1044922l2.9003906-7.9755859h1.2080078l2.8896484,7.9755859h-1.1054688ZM27.4100342,44.1240425h-1.1738281l-1.8642578-6.4570312-1.9335938,6.4570312-1.1630859.0117188-2.2441406-8.0332031h1.1162109l1.75,6.8017578,1.9335938-6.8017578h1.1738281l1.8417969,6.7783203,1.7607422-6.7783203h1.1279297l-2.3251953,8.0214844ZM35.6512451,36.9541206h-3.4873047v2.7041016h2.8310547v.8525391h-2.8310547v3.6132812h-1.046875v-8.0214844h4.5341797v.8515625ZM38.1951904,44.1240425h-1.046875v-8.0214844h1.046875v8.0214844ZM44.4324951,44.1240425l-1.9111328-3.2802734h-1.265625v3.2802734h-1.046875v-8.0214844h2.5888672c.6064453,0,1.1181641.1035156,1.5371094.3105469.4179688.2070312.7304688.4873047.9375.8398438.2070312.3535156.3105469.7558594.3105469,1.2089844,0,.5517578-.1591797,1.0390625-.4775391,1.4609375-.3183594.4228516-.7958984.7021484-1.4326172.8408203l2.0146484,3.3603516h-1.2548828ZM55.5740967,44.1240425h-1.046875v-5.9384766l-2.6474609,5.9384766h-.7363281l-2.6591797-5.9501953v5.9501953h-1.046875v-7.9638672h1.1279297l2.9462891,6.5830078,2.9462891-6.5830078h1.1162109v7.9638672ZM180.0247803,48.2961006H60.0247803v-16.0396118h120v16.0396118Z"></path></g><g><path d="M210.4193393,36.0888672v-9.1757812h6.3183594v9.1757812h18.2021484v5.3652344h-42.7226562v-5.3652344h18.2021484ZM197.4818393,4.4487305h32.1923828v5.3652344h-12.8867188v1.253418c0,1.6044922.3339844,2.9506836,1.0029297,4.0366211.6679688,1.0869141,1.8720703,2.1484375,3.6103516,3.184082,1.5712891.9702148,3.234375,1.9140625,4.9892578,2.8330078,1.7548828.9199219,3.6523438,1.8984375,5.6914062,2.9335938l-2.8085938,4.9140625c-.8359375-.4013672-1.7294922-.8525391-2.6826172-1.3535156-.9521484-.5019531-1.921875-1.0195312-2.9082031-1.5546875-.9863281-.5341797-1.9550781-1.0693359-2.9082031-1.6044922-.9521484-.5341797-1.8300781-1.0361328-2.6328125-1.5043945-1.3037109-.7685547-2.2978516-1.4370117-2.9833984-2.0058594-.6855469-.5678711-1.1455078-1.0859375-1.3789062-1.5546875h-.0498047c-.2001953.46875-.6855469.9951172-1.4541016,1.5795898-.7695312.5854492-1.8388672,1.2788086-3.2089844,2.0810547-.8027344.46875-1.6796875.9707031-2.6328125,1.5048828-.953125.5351562-1.9140625,1.0703125-2.8837891,1.6044922-.9697266.5351562-1.9384766,1.0527344-2.9082031,1.5546875-.9697266.5009766-1.8720703.9521484-2.7070312,1.3535156l-2.8583984-5.0146484c2.0380859-1.0351562,3.9365234-2.0136719,5.6914062-2.9335938,1.7548828-.9189453,3.4169922-1.862793,4.9892578-2.8330078,1.7373047-1.0356445,2.9414062-2.097168,3.6103516-3.184082.6679688-1.0859375,1.0029297-2.4321289,1.0029297-4.0366211v-1.253418h-12.8876953v-5.3652344Z"></path><path d="M251.3353549,26.7626953c-1.8720703,0-3.5517578-.2919922-5.0390625-.8779297-1.4882812-.5839844-2.75-1.3789062-3.7861328-2.3818359s-1.8300781-2.15625-2.3818359-3.4599609c-.5507812-1.3037109-.8271484-2.6572266-.8271484-4.0615234v-2.8081055c0-1.4038086.2763672-2.7578125.8271484-4.0615234.5517578-1.3037109,1.3457031-2.4570312,2.3818359-3.4599609s2.2978516-1.7963867,3.7861328-2.3818359c1.4873047-.5844727,3.1669922-.8774414,5.0390625-.8774414s3.5517578.2929688,5.0400391.8774414c1.4873047.5854492,2.7490234,1.3789062,3.7851562,2.3818359s1.8310547,2.15625,2.3818359,3.4599609c.5517578,1.3037109.828125,2.6577148.828125,4.0615234v2.8081055c0,1.4042969-.2763672,2.7578125-.828125,4.0615234-.5507812,1.3037109-1.3457031,2.4570312-2.3818359,3.4599609s-2.2978516,1.7978516-3.7851562,2.3818359c-1.4882812.5859375-3.1679688.8779297-5.0400391.8779297ZM251.3353549,7.8583984c-.9355469,0-1.7792969.1586914-2.5322266.4760742-.7519531.3183594-1.3867188.7446289-1.9052734,1.2788086-.5185547.5351562-.9199219,1.1533203-1.203125,1.8554688-.2841797.7016602-.4267578,1.4208984-.4267578,2.15625v1.9052734c0,.7695312.1425781,1.496582.4267578,2.1811523.2832031.6855469.6845703,1.2958984,1.203125,1.8300781.5185547.5351562,1.1533203.9614258,1.9052734,1.2788086.7529297.3183594,1.5966797.4765625,2.5322266.4765625s1.7802734-.1582031,2.5322266-.4765625c.7529297-.3173828,1.3867188-.7436523,1.90625-1.2788086.5175781-.5341797.9189453-1.1445312,1.203125-1.8300781.2832031-.6845703.4257812-1.4116211.4257812-2.1811523v-1.9052734c0-.7353516-.1425781-1.4545898-.4257812-2.15625-.2841797-.7021484-.6855469-1.3203125-1.203125-1.8554688-.5195312-.5341797-1.1533203-.9604492-1.90625-1.2788086-.7519531-.3173828-1.5966797-.4760742-2.5322266-.4760742ZM253.2914096,41.4042969h24.0683594v5.4150391h-30.4365234v-15.6445312h6.3681641v10.2294922ZM276.6078159,33.8828125h-6.3173828V.6879883h6.3173828v33.1948242Z"></path><path d="M297.6673862,16.8842773c-.1669922.4345703-.5595703.9697266-1.1777344,1.6044922-.6191406.6352539-1.3632812,1.3037109-2.2314453,2.0058594-1.0703125.8696289-2.1816406,1.7636719-3.3349609,2.6831055-1.1533203.9199219-2.515625,1.9472656-4.0869141,3.0830078l-3.6601562-4.7133789c1.6044922-1.1357422,2.9746094-2.1474609,4.1113281-3.0336914,1.1367188-.8852539,2.2734375-1.8129883,3.4101562-2.7827148,1.2705078-1.1035156,2.1728516-2.2392578,2.7080078-3.409668.5341797-1.1699219.8017578-2.5073242.8017578-4.0117188V2.3925781h6.4189453v5.8168945c0,.8022461.0498047,1.5214844.1503906,2.1557617.0996094.6357422.2919922,1.2285156.5761719,1.7802734s.6523438,1.078125,1.1035156,1.5795898,1.0283203,1.0366211,1.7294922,1.6044922c.8691406.6689453,1.9384766,1.4541016,3.2099609,2.3569336,1.2695312.9023438,2.5068359,1.7548828,3.7099609,2.5571289l-3.5097656,4.4125977c-1.0703125-.7011719-2.1308594-1.4287109-3.1845703-2.1811523-1.0527344-.7519531-2.1142578-1.512207-3.1835938-2.2817383-2.0058594-1.4702148-3.1767578-2.5737305-3.5097656-3.309082h-.0507812ZM322.187894,26.8125v20.5585938h-29.6845703v-20.5585938h6.2675781v5.2646484h17.1494141v-5.2646484h6.2675781ZM315.9203159,42.15625v-4.8632812h-17.1494141v4.8632812h17.1494141ZM315.8695346,14.1264648h-8.2236328v-5.3657227h8.2236328V.6879883h6.3183594v24.019043h-6.3183594v-10.5805664Z"></path></g></svg>