<svg xmlns="http://www.w3.org/2000/svg" id="_&#xB808;&#xC774;&#xC5B4;_1" data-name="&#xB808;&#xC774;&#xC5B4;_1" viewBox="0 0 80 80"><defs><style>      .st0 {        fill: #262728;      }      .st1 {        fill: #c7b299;      }    </style></defs><path class="st1" d="M27.0658149,54.8609582c0,3.6040458-1.8125659,9.7884146-7.2506824,9.7884146s-7.2506824-6.1843688-7.2506824-9.7884146,3.2461407-6.5256563,7.2506824-6.5256563,7.2506824,2.9216105,7.2506824,6.5256563Z"></path><path class="st1" d="M24.8424194,65.6355315h-10.0545738c-4.6270701,0-8.3785788,5.1476593-8.3785788,9.7750088h26.8117314c0-4.6273495-3.7515087-9.7750088-8.3785788-9.7750088Z"></path><path class="st1" d="M73.8448167,54.8609582c0,3.6040458-1.8125659,9.7884146-7.2506824,9.7884146s-7.2506824-6.1843688-7.2506824-9.7884146,3.2461407-6.5256563,7.2506824-6.5256563,7.2506824,2.9216105,7.2506824,6.5256563Z"></path><path class="st1" d="M71.6214212,65.6355315h-10.0545738c-4.6270701,0-8.3785788,5.1476593-8.3785788,9.7750088h26.8117314c0-4.6273495-3.7515087-9.7750088-8.3785788-9.7750088Z"></path><path class="st0" d="M38.8191129,21.7905004c-5.8093663,0-7.9749235-6.3037079-7.9749235-10.2768508,0-4.0345094,3.5769877-7.3169378,7.9749235-7.3169378s7.9749235,3.2824283,7.9749235,7.3169378c0,3.9731429-2.1655572,10.2768508-7.9749235,10.2768508ZM38.8191129,6.9895715c-2.8569536,0-5.1820638,2.0291871-5.1820638,4.5240781,0,1.9412284.9518633,7.4839911,5.1820638,7.4839911s5.1820638-5.5427628,5.1820638-7.4839911c0-2.494891-2.3251102-4.5240781-5.1820638-4.5240781Z"></path><path class="st0" d="M67.4718628,64.2390747h-.378479c2.6730347-2.3319092,3.7617798-6.4386597,3.7617798-9.3781738,0-4.3679199-3.8783569-7.9217529-8.645874-7.9217529-4.7688599,0-8.6485596,3.553833-8.6485596,7.9217529,0,2.9395142,1.0893555,7.0462646,3.7631836,9.3781738h-.378479c-5.8189087,0-10.1663818,6.1052856-10.1663818,11.564209h2.7928467c0-3.9724731,3.2892456-8.7713623,7.3735352-8.7713623h10.5264282c4.0842285,0,7.3734741,4.7988892,7.3734741,8.7713623h2.7929077c0-5.4589233-4.3474731-11.564209-10.1663818-11.564209ZM56.3535767,54.8609009c0-2.8283081,2.6264648-5.1288452,5.8557129-5.1288452,3.2279053,0,5.8530273,2.3005371,5.8530273,5.1288452,0,2.1778564-1.0759888,8.3922119-5.8530273,8.3922119-4.7797241,0-5.8557129-6.2143555-5.8557129-8.3922119Z"></path><path class="st0" d="M20.6928101,64.2390747h-.378479c2.6730347-2.3319092,3.7617798-6.4386597,3.7617798-9.3781738,0-4.3679199-3.8783569-7.9217529-8.645813-7.9217529-4.7675171,0-8.6472778,3.553833-8.6472778,7.9217529,0,2.9395142,1.0894775,7.0462646,3.7628784,9.3781738h-.3795166c-5.8189087,0-10.1663818,6.1052856-10.1663818,11.564209h2.7928467c0-3.9724731,3.2892456-8.7713623,7.3735352-8.7713623h10.5264282c4.0842896,0,7.3735352,4.7988892,7.3735352,8.7713623h2.7928467c0-5.4589233-4.3474731-11.564209-10.1663818-11.564209ZM9.5759277,54.8609009c0-2.8283081,2.6264648-5.1288452,5.8543701-5.1288452,3.2278442,0,5.8529663,2.3005371,5.8529663,5.1288452,0,2.1778564-1.0759277,8.3922119-5.8529663,8.3922119-4.7784424,0-5.8543701-6.2143555-5.8543701-8.3922119Z"></path><path class="st0" d="M27.0585554,34.2649554h-2.7928597c0-5.8161848,4.1401963-10.841423,9.8459213-11.9487482l.5318434,2.741039c-4.3952084.8536768-7.584905,4.7259058-7.584905,9.2077092Z"></path><path class="st0" d="M53.3725301,34.2649554h-2.7928597c0-4.4818034-3.1896967-8.3540324-7.584905-9.2077092l.5318434-2.741039c5.705725,1.1073252,9.8459213,6.1325634,9.8459213,11.9487482Z"></path><rect class="st0" x="37.3381336" y="36.3105069" width="2.7928597" height="9.7750088"></rect><path class="st0" d="M30.7037282,53.3233589l-1.6937167-2.2214689,8.962243-6.8328239c.5100242-.3879729,1.2136939-.3804726,1.7168996.01841l8.5804067,6.8328239-1.7400825,2.184649-7.7294573-6.1550645-8.0962929,6.1734745Z"></path></svg>