<svg xmlns="http://www.w3.org/2000/svg" id="_&#xB808;&#xC774;&#xC5B4;_1" data-name="&#xB808;&#xC774;&#xC5B4;_1" viewBox="0 0 80 80"><defs><style>      .st0 {        fill: #262728;      }      .st1 {        fill: #c7b299;      }    </style></defs><polygon class="st1" points="22.8564798 19.2857833 22.8564798 72.1429262 37.1421941 72.1429262 37.1421941 56.4286405 51.4279084 56.4286405 51.4279084 72.1429262 62.8564798 72.1429262 62.8564798 19.2857833 22.8564798 19.2857833"></polygon><polygon class="st1" points="5.3571429 72.1428571 3.2142857 72.1428571 3.2142857 26.7857143 17.1428571 26.7857143 17.1428571 28.9285714 5.3571429 28.9285714 5.3571429 72.1428571"></polygon><polygon class="st1" points="76.7857143 72.1428571 74.6428571 72.1428571 74.6428571 28.9285714 62.8571429 28.9285714 62.8571429 26.7857143 76.7857143 26.7857143 76.7857143 72.1428571"></polygon><g><path class="st0" d="M25.7142944,9.2857056h28.5714111v2.8571167h2.8571777v-4.2857056c0-.7889404-.6389771-1.4285889-1.4285889-1.4285889h-31.4285889c-.7896118,0-1.4285889.6396484-1.4285889,1.4285889v4.2857056h2.8571777v-2.8571167Z"></path><path class="st0" d="M62.8571167,70.7142944V15c0-.7889404-.638916-1.4285889-1.4285278-1.4285889H17.1428833c-.7896729,0-1.4285889.6396484-1.4285889,1.4285889v55.7142944H0v2.8571167h80v-2.8571167h-17.1428833ZM32.8571167,70.7142944v-12.8571777h11.4285889v12.8571777h-11.4285889ZM45.7142944,55h-14.2857056c-.7896118,0-1.4285889.638916-1.4285889,1.4285278v14.2857666h-11.4285889V16.4285278h41.4285889v54.2857666h-12.8571167v-14.2857666c0-.7896118-.6389771-1.4285278-1.4285889-1.4285278Z"></path><rect class="st0" x="27.1428833" y="23.5714111" width="7.1428223" height="2.8571167"></rect><rect class="st0" x="44.2857056" y="23.5714111" width="7.1428833" height="2.8571167"></rect><rect class="st0" x="27.1428833" y="33.5714111" width="7.1428223" height="2.8571167"></rect><rect class="st0" x="44.2857056" y="33.5714111" width="7.1428833" height="2.8571167"></rect><rect class="st0" x="27.1428833" y="42.1428223" width="7.1428223" height="2.8571777"></rect><rect class="st0" x="44.2857056" y="42.1428223" width="7.1428833" height="2.8571777"></rect></g></svg>