<svg xmlns="http://www.w3.org/2000/svg" id="_&#xB808;&#xC774;&#xC5B4;_1" data-name="&#xB808;&#xC774;&#xC5B4;_1" viewBox="0 0 80 80"><defs><style>      .st0 {        fill: #262728;      }      .st1 {        fill: #c7b299;      }    </style></defs><g><path class="st1" d="M48.1567677,52.6779238c-.0234153-.0028211-5.6601652-4.205593-5.6601652-4.205593l1.2590785-1.6915469c1.0744154-1.4132429-.2038365-3.8293959-1.0620229-5.1436172-1.48631-2.2659281-3.8804581-4.6820811-6.7443237-6.8062476-4.9341485-3.6764909-9.1975745-4.9809793-11.3478363-4.9809793-1.1006621,0-1.8941037.3154018-2.3583102.9380243l-1.2617581,1.7149622-5.6532534-4.2178649L32.1502657,5.6444002l5.657344,4.1986812-1.2686601,1.7135517c-1.027595,1.3844674.0922508,3.6573072,1.2149177,5.3199376,1.5001335,2.2247396,3.8432193,4.5747372,6.5996,6.6203354,2.8610444,2.1282571,5.8682336,3.7247321,8.4661977,4.4947583,1.0579221.3099006,2.0042686.4670373,2.8170349.4670373,1.1391705,0,1.9532062-.3113112,2.4174225-.9257524l1.2645695-1.7039599,5.6560853,4.2123637-16.8221001,22.6420718.0040906-.0055012Z"></path><path class="st1" d="M9.0978185,72.9540736c-1.7315209,0-3.4396243-.5537561-4.8446771-1.5979032-1.7962636-1.3348001-2.9712734-3.3762592-3.2219789-5.6009261-.252083-2.2246669.4380459-4.4755064,1.8913112-6.1767222L30.6378287,27.5667362l2.1323742,1.8465424L5.0617355,61.4174882c-.9559869,1.1185322-1.3940328,2.5497575-1.2273549,4.0209305.1653003,1.4725504.9119068,2.7687805,2.1020692,3.6531372,1.1887849.8843568,2.6516927,1.2232224,4.1008256.9573644,1.4573979-.265858,2.7012828-1.0992472,3.5016119-2.3458871l22.6351248-35.7620371,2.3830797,1.5083655-22.6392573,35.7716796c-1.2149574,1.8913112-3.1710113,3.2013163-5.3736381,3.6035471-.4793709.0867827-.9642519.1294853-1.4463779.1294853Z"></path></g><circle class="st1" cx="63.5035601" cy="64.4844754" r="7.052814"></circle><g><path class="st0" d="M21.9664307,27.4055786c.3016968-.4105225,1.5896606-.5703125,3.7027588.0502319,2.4326782.7149658,5.281311,2.230896,8.0239258,4.2689209,2.7440186,2.0380249,5.0182495,4.3287964,6.4053955,6.4515381,1.2023926,1.8386841,1.4229126,3.1182861,1.1173096,3.5289307l-1.2619629,1.6986694c-.2231445.300293-.3181763.6777344-.2630615,1.046875.0550537.3706055.253418.7039185.5537109.927063l5.6615601,4.2055664c.253479.1873169.5482178.2781982.840271.2781982.4311523,0,.8568115-.1969604,1.133667-.5689087l16.8234863-22.6467896c.4641724-.6254272.3347168-1.5083618-.2906494-1.9732666l-5.6615601-4.2062378c-.3016968-.2231445-.6818848-.3181763-1.046875-.2630615-.3706055.0543823-.7039185.2541504-.927063.5544434l-1.2617798,1.6984863-.000061-.000061c-.3043823.4084473-1.5923462.5689087-3.701355-.050293-2.4326172-.7149048-5.2827148-2.230835-8.0253296-4.2688599-5.9711914-4.4353638-8.2632446-8.9822998-7.522583-9.9805298l1.2618408-1.6986084c.4642334-.6254272.3347778-1.5083618-.2906494-1.9732666L31.5759277.2783813c-.300293-.2231445-.6818848-.3181763-1.046936-.2631226-.3705444.0544434-.7039185.2541504-.927063.5545044L12.7785034,23.2158813c-.4642334.6253662-.3347168,1.5083618.2906494,1.9732666l5.6615601,4.2062378c.2451782.1818237.539978.2781982.8416138.2781982.0689087,0,.1377563-.0048218.2052612-.0151367.3705444-.0543823.7039185-.2541504.927063-.5544434l1.2617188-1.6984253h.000061ZM58.2002563,23.5719604l3.3969727,2.524292-15.1401367,20.3807983-3.3969727-2.5221558,14.7160034-19.8118896c.0012207-.0016479.0028076-.0032349.0040283-.0048828l-.0003052-.0001831.4204102-.565979ZM42.1055298,20.4016113c3.0043335,2.2315674,6.168457,3.904541,8.9124756,4.7110596.8175049.2401733,1.5357666.3816528,2.1834106.4586792l-9.668457,13.0146484c-.2605591-.5957031-.6091919-1.2440186-1.0734253-1.9539185-1.5634155-2.3934326-4.0801392-4.9404297-7.0830688-7.1719971-3.0029907-2.230835-6.168457-3.904541-8.9124756-4.7110596-.8260498-.2426147-1.5380859-.3723755-2.190979-.4484253l9.6799316-13.0301514c1.3050537,2.9987183,4.4909668,6.4111938,8.1525879,9.1311646ZM19.2816772,26.2897949l-3.3969116-2.524292L31.0249023,3.3839722l3.3969116,2.524292-14.7173462,19.812439c-.0007324.0009766-.0018921.0019531-.0026245.0029297l.0002441.0001831-.4204102.565979Z"></path><path class="st0" d="M77.609314,6.6514282h-32.4429932v2.821106h31.0324097v67.7062988H24.0079346v-9.8739014h-2.821167v11.2844849c0,.7796631.6309204,1.4105835,1.4105835,1.4105835h55.0119629c.7796631,0,1.4105225-.6309204,1.4105225-1.4105835V8.0619507c0-.7789307-.6308594-1.4105225-1.4105225-1.4105225Z"></path><rect class="st0" x="39.5241089" y="67.3049316" width="11.2844849" height="2.821106"></rect><rect class="st0" x="32.4713135" y="60.2520752" width="18.3372803" height="2.821167"></rect></g></svg>