<svg xmlns="http://www.w3.org/2000/svg" id="_&#xB808;&#xC774;&#xC5B4;_1" data-name="&#xB808;&#xC774;&#xC5B4;_1" viewBox="0 0 80 80"><defs><style>      .st0 {        fill: #262728;      }      .st1 {        fill: #00cca2;      }      .st2 {        fill: #c7b299;      }    </style></defs><rect class="st1" x="58.351598" y="25.0657261" width="2.5805194" height="8.9631036" transform="translate(27.4080719 87.7810815) rotate(-87.3887922)"></rect><g><path class="st2" d="M70.9677768,29.0321631v36.1290129c-12.4189016,0-20.0582492-7.1647671-30.9677768-.8008359v-10.8120654h18.0645064v-.3037364c0-4.1079471-3.3301707-7.4381778-7.4381778-7.4381778h-10.6263286v-25.8061804h-2.5807381v25.8061804h-2.8842943c-4.1080072,0-7.4381778,3.3302307-7.4381778,7.4381778v.3037364h10.3224722v10.7503933c-10.2827787-6.2519366-24.7790735.862508-30.9675967.862508V29.0321631h-1.290309v46.4516052h74.8386438V29.0321631h-9.0322232Z"></path><path class="st2" d="M35.5201461,23.8709172c0,4.4788361-3.6308365,8.1098017-8.1097925,8.1098017-4.4788449,0-8.1096726-3.6309656-8.1096726-8.1098017h16.2194651Z"></path><path class="st2" d="M67.9590939,23.8709172c0,4.4788361-3.6308365,8.1098017-8.1096724,8.1098017-4.478965,0-8.1098015-3.6309656-8.1098015-8.1098017h16.2194739Z"></path><path class="st0" d="M76.1288928,23.870807h-3.8711072v-4.1041039c0-.7124413-.5774474-1.2903691-1.2903691-1.2903691-3.552118,0-7.0417833-.2060939-9.6849741-.3857656l-.0244406.3600038-4.3653243-7.4829756h3.7527473v-2.5807381h-20.6454247v-3.8706268h-2.5807381v3.8706268h-20.6449443v2.5807381h4.3988927l-4.0932347,7.0169823c-3.4583188.2498108-7.1210502.491755-10.6281301.491755-.7124413,0-1.2903691.5779278-1.2903691,1.2903691v4.1041039H1.2903691c-.7124413,0-1.2903691.5779278-1.2903691,1.2903691v46.451365c0,.7129217.5779278,1.2903691,1.2903691,1.2903691h74.8385237c.7129217,0,1.2903691-.5774474,1.2903691-1.2903691V25.161176c0-.7124413-.5774474-1.2903691-1.2903691-1.2903691ZM49.825853,22.5804379l5.42654-9.3030518,5.4273207,9.3030518h-10.8538607ZM61.950206,25.161176c-.6053109,3.1452146-3.3782112,5.5289865-6.697813,5.5289865-3.3186409,0-6.0915413-2.3837719-6.6968521-5.5289865h13.3946651ZM53.6121687,10.9675967l-3.7114324,6.3629103c-4.0846474-.9809279-7.1864454-.2340175-9.9007362.6453647v-7.008275h13.6121687ZM46.7549812,47.0964894c3.0544179,0,5.5957628,2.2386895,6.0694426,5.1614763h-28.2291054c.4731994-2.9227868,3.0145443-5.1614763,6.0684818-5.1614763h16.091181ZM37.4192619,10.9675967v7.0076745c-2.573412-.8326628-5.6529911-1.5889411-9.2968065-.7183863l-3.6686764-6.2892882h12.9654829ZM17.3865342,22.5804379l5.4269604-9.3030518,5.4269604,9.3030518h-10.8539207ZM29.5103467,25.161176c-.6048305,3.1452146-3.3777308,5.5289865-6.6968521,5.5289865s-6.0920217-2.3837719-6.6968521-5.5289865h13.3937043ZM7.7422144,21.0469837c2.5871035-.0393332,5.2136003-.1904808,7.7643731-.3650481l-1.1481691,1.9682212c-.5408164.1537297-.9450176.6307123-.9450176,1.2206502,0,5.1830945,4.2169991,9.4000937,9.4000937,9.4000937s9.4000937-4.2169991,9.4000937-9.4000937c0-.5899379-.4042011-1.0669205-.9450176-1.2206502l-1.7723359-3.0382643c3.0104008-.5014232,5.6001465.3019348,7.923027,1.0831942v23.8206646h-6.7554616c-4.8127019,0-8.7284868,3.9162653-8.7284868,8.7289672v.3036163c0,.7129217.5779278,1.2903691,1.2903691,1.2903691h30.9678969c.7129217,0,1.2903691-.5774474,1.2903691-1.2903691v-.3036163c0-4.8127019-3.9162653-8.7289672-8.7289672-8.7289672h-6.7549812v-23.8204244c2.5011109-.8409498,5.1140963-1.6337989,8.5262361-1.0084311l-1.7284989,2.963261c-.5410567.1536697-.9449575.6306523-.9449575,1.2206502,0,5.1830945,4.2169991,9.4000937,9.3996133,9.4000937,5.1835749,0,9.4005741-4.2169991,9.4005741-9.4000937,0-.590058-.404021-1.0669805-.9450776-1.2206502l-1.1010293-1.8873329c2.0892233.1300097,4.5328657.2529335,7.0701872.285601v42.5634435c-3.8739896-.1537297-7.2771819-.970419-10.5794891-1.7640489-6.5287102-1.5670826-12.7067245-3.0505747-20.3081801,1.5103948-6.9985468-5.0596303-17.4449635-2.7018003-25.1458631-.965615-2.2804847.5140338-4.3217275.9742623-5.9013007,1.158738V21.0469837ZM74.8385237,70.3221719H2.5807381V26.4515451h2.5807381v38.4766343c0,.7129217.5779278,1.2903691,1.2903691,1.2903691,1.9552502,0,4.6450404-.6062717,7.759509-1.3086245,7.4558928-1.6814191,17.6654697-3.9844829,23.6734204,1.0107731.2378007.1969662.530848.2978514.8248562.2978514.2430852,0,.4866507-.0682176.7004312-.2065743,7.0336164-4.5494397,12.3526656-3.2706004,19.0850678-1.6545164,3.6318653.8724163,7.7489401,1.8610908,12.4722866,1.8610908.7129217,0,1.2903691-.5774474,1.2903691-1.2903691V26.4515451h2.5807381v43.8706268Z"></path></g></svg>